<svg width="138" height="40" viewBox="0 0 138 40" fill="none" xmlns="http://www.w3.org/2000/svg">
<g clip-path="url(#clip0_123_2081)">
<g style="mix-blend-mode:luminosity" opacity="0.5">
<path d="M22.8227 26.2922C28.8875 26.2922 33.804 21.3809 33.804 15.3226C33.804 14.636 33.7408 13.9641 33.62 13.3125C32.9677 13.1917 32.2951 13.1287 31.6077 13.1287C25.5429 13.1287 20.6265 18.0399 20.6265 24.0983C20.6265 24.7849 20.6895 25.4567 20.8104 26.1084C21.4628 26.229 22.1354 26.2922 22.8227 26.2922Z" fill="#175CD3"/>
<path fill-rule="evenodd" clip-rule="evenodd" d="M20.8103 26.1083C15.7065 25.1641 11.8413 20.6943 11.8413 15.3225C11.8413 9.26426 16.7578 4.35303 22.8226 4.35303C28.2 4.35303 32.6748 8.21413 33.6199 13.3124C32.9676 13.1918 32.295 13.1286 31.6076 13.1286C25.5428 13.1286 20.6264 18.0399 20.6264 24.0982C20.6264 24.7848 20.6895 25.4567 20.8103 26.1083Z" fill="#1570EF"/>
<path fill-rule="evenodd" clip-rule="evenodd" d="M22.8228 26.2921C28.8876 26.2921 33.8041 21.3809 33.8041 15.3226C33.8041 14.636 33.7409 13.9641 33.6201 13.3125C38.7239 14.2566 42.5891 18.7265 42.5891 24.0983C42.5891 30.1566 37.6726 35.0678 31.6078 35.0678C26.2304 35.0678 21.7556 31.2067 20.8105 26.1084C21.4628 26.2291 22.1355 26.2921 22.8228 26.2921Z" fill="#2E90FA"/>
<path d="M59.0459 26.8589C62.7985 26.8589 65.5029 24.7437 65.7754 21.6024H62.6308C62.3793 23.1102 60.9327 24.1364 59.0459 24.1364C56.677 24.1364 54.8531 22.503 54.8531 19.3617C54.8531 16.2204 56.677 14.566 59.0459 14.566C60.8908 14.566 62.3373 15.5922 62.5469 17.1209H65.8384C65.4401 13.9587 62.7356 11.8645 59.0459 11.8645C55.1256 11.8645 51.6875 14.4194 51.6875 19.3617C51.6875 24.304 55.0627 26.8589 59.0459 26.8589Z" fill="white"/>
<path d="M71.6114 15.9685C68.7184 15.9685 66.9993 17.6647 66.8735 19.7799H69.4731C69.5151 18.9004 70.1649 18.1046 71.4438 18.1046C72.6387 18.1046 73.3305 18.7118 73.3305 19.5914C73.3305 20.0312 73.058 20.3663 72.5339 20.3663H70.752C68.4459 20.3663 66.8945 21.6228 66.8945 23.696C66.8945 25.497 68.2992 26.8583 70.3536 26.8583C71.8002 26.8583 72.9742 26.209 73.3305 25.2248V26.6907H76.2236V19.9056C76.2236 17.5182 74.274 15.9685 71.6114 15.9685ZM71.0873 24.7431C70.2698 24.7431 69.6828 24.2615 69.6828 23.5704C69.6828 22.7537 70.3117 22.2092 71.1922 22.2092H73.3305V22.3557C73.3305 23.696 72.513 24.7431 71.0873 24.7431Z" fill="white"/>
<path d="M78.1816 30.9629H81.0957V25.7483C81.6617 26.4603 82.6889 26.8583 83.8839 26.8583C86.9237 26.8583 88.9783 24.7012 88.9783 21.4134C88.9783 18.1255 87.0915 15.9685 84.1355 15.9685C82.7728 15.9685 81.7246 16.4711 81.0957 17.2878V16.136H78.1816V30.9629ZM83.5276 24.3453C81.9552 24.3453 80.9279 23.1725 80.9279 21.4134C80.9279 19.6333 81.9552 18.4605 83.5276 18.4605C85.058 18.4605 86.1061 19.6333 86.1061 21.4134C86.1061 23.1725 85.058 24.3453 83.5276 24.3453Z" fill="white"/>
<path d="M94.1095 26.8583C96.5833 26.8583 98.2185 25.5389 98.2185 23.5285C98.2185 18.7537 92.4323 21.204 92.4323 19.0469C92.4323 18.3768 92.9984 18.0208 93.816 18.0208C94.6126 18.0208 95.4302 18.5024 95.5561 19.403H98.0927C97.9879 17.3297 96.2689 15.9685 93.7322 15.9685C91.5729 15.9685 89.9586 17.2878 89.9586 19.1517C89.9586 23.5913 95.6399 21.4762 95.6399 23.6332C95.6399 24.2196 95.011 24.6593 94.1095 24.6593C93.0194 24.6593 92.2856 24.073 92.1808 23.1306H89.665C89.7699 25.4132 91.5309 26.8583 94.1095 26.8583Z" fill="white"/>
<path d="M109.728 16.1367H106.793V21.9167C106.793 23.257 105.891 24.2622 104.612 24.2622C103.418 24.2622 102.579 23.3407 102.579 22.0632V16.1367H99.665V22.7125C99.665 25.1207 101.216 26.859 103.585 26.859C105.032 26.859 106.206 26.2307 106.793 25.2255V26.6914H109.728V16.1367Z" fill="white"/>
<path d="M111.824 26.6908H114.738V11.5498H111.824V26.6908Z" fill="white"/>
<path d="M123.897 23.1096C123.666 24.0102 122.89 24.4709 121.717 24.4709C120.248 24.4709 119.305 23.5495 119.095 22.0625H126.685C126.705 21.8322 126.727 21.5181 126.727 21.1202C126.727 18.7118 125.238 15.9685 121.507 15.9685C117.922 15.9685 116.287 18.7118 116.287 21.3924C116.287 24.0521 118.131 26.8583 121.717 26.8583C124.315 26.8583 126.329 25.3924 126.748 23.1096H123.897ZM121.507 18.1046C122.911 18.1046 123.729 19.0469 123.813 20.2197H119.138C119.389 18.7537 120.186 18.1046 121.507 18.1046Z" fill="white"/>
</g>
</g>
<defs>
<clipPath id="clip0_123_2081">
<rect width="138" height="39.42" fill="white"/>
</clipPath>
</defs>
</svg>
