<svg width="138" height="40" viewBox="0 0 138 40" fill="none" xmlns="http://www.w3.org/2000/svg">
<g clip-path="url(#clip0_123_2127)">
<g clip-path="url(#clip1_123_2127)">
<g style="mix-blend-mode:luminosity" opacity="0.5">
<path d="M13.9288 24.6468C19.0288 24.6468 23.1633 20.6023 23.1633 15.6131C23.1633 10.6239 19.0288 6.57935 13.9288 6.57935H1.00049V24.6468H13.9288Z" fill="#F38744"/>
<path d="M1.00049 6.57935L23.1633 33.6806H8.38809L1.00049 24.6468V6.57935Z" fill="#2E90FA"/>
<path d="M15.6479 24.4906C15.0909 24.5932 14.5162 24.6468 13.9288 24.6468H1.00049V6.57935L15.6479 24.4906Z" fill="#53B1FD"/>
<path d="M38.3623 26.4615C37.0695 26.4615 35.9588 26.2086 35.0303 25.7027C34.1136 25.1853 33.4085 24.461 32.9148 23.5297C32.4212 22.5868 32.1743 21.4774 32.1743 20.2012C32.1743 18.9249 32.4212 17.8212 32.9148 16.8899C33.4085 15.9586 34.1136 15.2399 35.0303 14.7341C35.9588 14.2167 37.0695 13.958 38.3623 13.958C39.1968 13.958 39.9842 14.0844 40.7246 14.3374C41.4768 14.5904 42.0939 14.9526 42.5758 15.4239L41.8353 17.1831C41.3065 16.7462 40.7658 16.4299 40.2134 16.2345C39.661 16.0276 39.0675 15.9241 38.4328 15.9241C37.1752 15.9241 36.2173 16.2978 35.5592 17.0451C34.901 17.781 34.5719 18.833 34.5719 20.2012C34.5719 21.5693 34.901 22.6272 35.5592 23.3745C36.2173 24.1218 37.1752 24.4955 38.4328 24.4955C39.0675 24.4955 39.661 24.3977 40.2134 24.2023C40.7658 23.9953 41.3065 23.6734 41.8353 23.2365L42.5758 24.9956C42.0939 25.4555 41.4768 25.8177 40.7246 26.0821C39.9842 26.3351 39.1968 26.4615 38.3623 26.4615Z" fill="white"/>
<path d="M47.6451 26.4619C46.7519 26.4619 45.9762 26.2838 45.3181 25.9273C44.6599 25.5708 44.1486 25.065 43.7843 24.4096C43.4199 23.7427 43.2378 22.9609 43.2378 22.0641C43.2378 21.1673 43.4199 20.3913 43.7843 19.7359C44.1486 19.0805 44.6599 18.5747 45.3181 18.2182C45.9762 17.8618 46.7519 17.6836 47.6451 17.6836C48.5384 17.6836 49.3141 17.8618 49.9722 18.2182C50.6304 18.5747 51.1417 19.0805 51.506 19.7359C51.8704 20.3913 52.0525 21.1673 52.0525 22.0641C52.0525 22.9609 51.8704 23.7427 51.506 24.4096C51.1417 25.065 50.6304 25.5708 49.9722 25.9273C49.3141 26.2838 48.5384 26.4619 47.6451 26.4619ZM47.6451 24.8235C48.3034 24.8235 48.8322 24.5936 49.2318 24.1337C49.6314 23.6623 49.8312 22.9725 49.8312 22.0641C49.8312 21.1444 49.6314 20.4602 49.2318 20.0118C48.8322 19.5519 48.3034 19.322 47.6451 19.322C46.987 19.322 46.4581 19.5519 46.0585 20.0118C45.6589 20.4602 45.4591 21.1444 45.4591 22.0641C45.4591 22.9725 45.6589 23.6623 46.0585 24.1337C46.4581 24.5936 46.987 24.8235 47.6451 24.8235Z" fill="white"/>
<path d="M53.9067 26.2895V17.8561H56.0576V19.1495C56.3161 18.6896 56.6746 18.3332 57.133 18.0803C57.5913 17.8158 58.1202 17.6836 58.7196 17.6836C60.0125 17.6836 60.8587 18.2355 61.2583 19.3392C61.5286 18.8218 61.9165 18.4195 62.4219 18.132C62.9272 17.8331 63.5031 17.6836 64.1495 17.6836C66.0888 17.6836 67.0583 18.8391 67.0583 21.1501V26.2895H64.8547V21.2363C64.8547 20.5925 64.743 20.121 64.5197 19.8221C64.3082 19.5232 63.9439 19.3737 63.4267 19.3737C62.8508 19.3737 62.3983 19.575 62.0692 19.9773C61.7402 20.3683 61.5756 20.9144 61.5756 21.6157V26.2895H59.3719V21.2363C59.3719 20.5925 59.2603 20.121 59.037 19.8221C58.8254 19.5232 58.4669 19.3737 57.9616 19.3737C57.3856 19.3737 56.9332 19.575 56.6041 19.9773C56.275 20.3683 56.1104 20.9144 56.1104 21.6157V26.2895H53.9067Z" fill="white"/>
<path d="M69.3672 26.2895V17.8561H71.5179V19.1495C71.7765 18.6896 72.135 18.3332 72.5933 18.0803C73.0517 17.8158 73.5806 17.6836 74.18 17.6836C75.4729 17.6836 76.319 18.2355 76.7186 19.3392C76.9889 18.8218 77.3768 18.4195 77.8822 18.132C78.3876 17.8331 78.9635 17.6836 79.6099 17.6836C81.5492 17.6836 82.5188 18.8391 82.5188 21.1501V26.2895H80.3151V21.2363C80.3151 20.5925 80.2035 20.121 79.9801 19.8221C79.7686 19.5232 79.4042 19.3737 78.8871 19.3737C78.3112 19.3737 77.8587 19.575 77.5296 19.9773C77.2005 20.3683 77.036 20.9144 77.036 21.6157V26.2895H74.8323V21.2363C74.8323 20.5925 74.7206 20.121 74.4973 19.8221C74.2858 19.5232 73.9273 19.3737 73.4219 19.3737C72.846 19.3737 72.3936 19.575 72.0645 19.9773C71.7353 20.3683 71.5709 20.9144 71.5709 21.6157V26.2895H69.3672Z" fill="white"/>
<path d="M87.6305 26.4619C87.0076 26.4619 86.4493 26.3469 85.9558 26.117C85.4739 25.8756 85.0919 25.5536 84.8098 25.1512C84.5395 24.7488 84.4043 24.2946 84.4043 23.7888C84.4043 23.1679 84.5689 22.6793 84.8979 22.3228C85.227 21.9549 85.7618 21.6904 86.5022 21.5295C87.2426 21.3686 88.2358 21.2881 89.4816 21.2881H90.0986V20.9259C90.0986 20.351 89.9694 19.9371 89.7108 19.6842C89.4522 19.4312 89.0174 19.3047 88.4062 19.3047C87.9243 19.3047 87.4308 19.3794 86.9253 19.5289C86.4199 19.6669 85.9088 19.8854 85.3916 20.1843L84.7569 18.7184C85.0625 18.5114 85.4209 18.3332 85.8323 18.1837C86.2555 18.0228 86.6962 17.9021 87.1545 17.8216C87.6246 17.7296 88.0654 17.6836 88.4768 17.6836C89.7343 17.6836 90.6687 17.9711 91.2798 18.5459C91.8909 19.1093 92.1965 19.9889 92.1965 21.1846V26.2895H90.1339V24.9443C89.9341 25.4156 89.6168 25.7893 89.1819 26.0653C88.7471 26.3297 88.2299 26.4619 87.6305 26.4619ZM88.0889 24.9788C88.6648 24.9788 89.1408 24.7833 89.5169 24.3924C89.9048 24.0014 90.0986 23.5071 90.0986 22.9092V22.5298H89.4992C88.3945 22.5298 87.6246 22.616 87.1898 22.7885C86.7666 22.9494 86.5552 23.2484 86.5552 23.6853C86.5552 24.0647 86.6903 24.3751 86.9606 24.6166C87.2309 24.858 87.607 24.9788 88.0889 24.9788Z" fill="white"/>
<path d="M94.4331 26.2895V17.8561H96.5839V19.1668C96.8777 18.6839 97.2714 18.316 97.7651 18.063C98.2704 17.81 98.8349 17.6836 99.4578 17.6836C101.491 17.6836 102.507 18.8391 102.507 21.1501V26.2895H100.303V21.2536C100.303 20.5982 100.174 20.121 99.916 19.8221C99.6687 19.5232 99.2814 19.3737 98.7522 19.3737C98.1059 19.3737 97.5888 19.575 97.2009 19.9773C96.8248 20.3683 96.6368 20.8914 96.6368 21.5468V26.2895H94.4331Z" fill="white"/>
<path d="M108.06 26.4619C107.308 26.4619 106.644 26.2838 106.068 25.9273C105.504 25.5708 105.063 25.065 104.746 24.4096C104.429 23.7427 104.27 22.9609 104.27 22.0641C104.27 21.1558 104.429 20.3797 104.746 19.7359C105.063 19.0805 105.504 18.5747 106.068 18.2182C106.644 17.8618 107.308 17.6836 108.06 17.6836C108.671 17.6836 109.223 17.8158 109.717 18.0803C110.211 18.3447 110.581 18.6954 110.828 19.1323V14.1309H113.031V26.2895H110.881V24.8925C110.645 25.3754 110.276 25.7605 109.77 26.048C109.265 26.324 108.695 26.4619 108.06 26.4619ZM108.677 24.8235C109.335 24.8235 109.864 24.5936 110.264 24.1337C110.663 23.6623 110.863 22.9725 110.863 22.0641C110.863 21.1444 110.663 20.4602 110.264 20.0118C109.864 19.5519 109.335 19.322 108.677 19.322C108.019 19.322 107.49 19.5519 107.091 20.0118C106.69 20.4602 106.491 21.1444 106.491 22.0641C106.491 22.9725 106.69 23.6623 107.091 24.1337C107.49 24.5936 108.019 24.8235 108.677 24.8235Z" fill="white"/>
<path d="M118.648 25.5993V22.0983H115.158V20.5806H118.648V17.1831H120.27V20.5806H123.761V22.0983H120.27V25.5993H118.648Z" fill="white"/>
<path d="M126.099 26.2895V14.1309H131.493C132.856 14.1309 133.909 14.4528 134.649 15.0966C135.389 15.729 135.759 16.62 135.759 17.7698C135.759 18.6782 135.519 19.4312 135.037 20.0291C134.555 20.6154 133.861 21.0121 132.957 21.2191C133.556 21.4031 134.05 21.8456 134.437 22.547L136.517 26.2895H134.032L131.882 22.4091C131.67 22.0296 131.417 21.7709 131.123 21.633C130.841 21.495 130.476 21.426 130.03 21.426H128.355V26.2895H126.099ZM128.355 19.7876H131.105C132.751 19.7876 133.574 19.1323 133.574 17.8216C133.574 16.5224 132.751 15.8727 131.105 15.8727H128.355V19.7876Z" fill="white"/>
</g>
</g>
</g>
<defs>
<clipPath id="clip0_123_2127">
<rect width="138" height="39.42" fill="white" transform="translate(0 0.419922)"/>
</clipPath>
<clipPath id="clip1_123_2127">
<rect width="138" height="39.42" fill="white" transform="translate(0 0.419922)"/>
</clipPath>
</defs>
</svg>
