<svg width="196" height="40" viewBox="0 0 196 40" fill="none" xmlns="http://www.w3.org/2000/svg">
<g clip-path="url(#clip0_123_2208)">
<path fill-rule="evenodd" clip-rule="evenodd" d="M24.7966 11.6853C23.201 10.5865 21.325 10 19.4059 10V0C23.244 0 26.996 1.17298 30.1873 3.37061C33.3786 5.56823 35.8659 8.69181 37.3347 12.3463C38.8034 16.0008 39.1878 20.0222 38.439 23.9018C37.6902 27.7814 35.842 31.3451 33.128 34.1421C30.4141 36.9392 26.9562 38.844 23.1918 39.6157C19.4275 40.3874 15.5255 39.9913 11.9796 38.4776C8.43363 36.9638 5.40284 34.4004 3.27049 31.1114C1.13814 27.8224 0 23.9556 0 20H9.70297C9.70297 21.9778 10.272 23.9112 11.3382 25.5557C12.4044 27.2002 13.9198 28.4819 15.6928 29.2388C17.4657 29.9957 19.4167 30.1937 21.2989 29.8078C23.1811 29.422 24.91 28.4696 26.267 27.0711C27.624 25.6725 28.5481 23.8907 28.9224 21.9509C29.2969 20.0111 29.1047 18.0004 28.3703 16.1732C27.6359 14.3459 26.3923 12.7841 24.7966 11.6853Z" fill="#242424"/>
<path fill-rule="evenodd" clip-rule="evenodd" d="M9.70296 5.28493e-06C9.70296 1.31322 9.452 2.61358 8.96437 3.82684C8.47675 5.04009 7.76204 6.14248 6.86103 7.07107C5.96003 7.99966 4.89039 8.73625 3.71317 9.2388C2.53594 9.74134 1.27421 10 4.24126e-07 10L0 20C2.54842 20 5.07189 19.4827 7.42634 18.4776C9.78078 17.4725 11.9201 15.9993 13.722 14.1421C15.5241 12.285 16.9535 10.0802 17.9288 7.65367C18.904 5.22715 19.4059 2.62643 19.4059 0L9.70296 5.28493e-06Z" fill="#007DFC"/>
<path d="M121.888 14.4525H117.18V29.8648H121.888V14.4525Z" fill="white"/>
<path d="M117.704 11.5666C118.196 12.074 118.811 12.3277 119.549 12.3277C120.288 12.3277 120.893 12.074 121.365 11.5666C121.837 11.0381 122.073 10.4038 122.073 9.66385C122.073 8.90277 121.837 8.26849 121.365 7.76111C120.893 7.25369 120.288 7 119.549 7C118.811 7 118.196 7.25369 117.704 7.76111C117.231 8.26849 116.996 8.90277 116.996 9.66385C116.996 10.4038 117.231 11.0381 117.704 11.5666Z" fill="white"/>
<path d="M49.6367 29.8648V7.47571H54.4677V25.4885H64.099V29.8648H49.6367Z" fill="white"/>
<path fill-rule="evenodd" clip-rule="evenodd" d="M72.7987 30.2136C71.2602 30.2136 69.8653 29.8648 68.6139 29.1671C67.3831 28.4483 66.4087 27.4758 65.6907 26.2495C64.9728 25.0233 64.6138 23.6491 64.6138 22.1269C64.6138 20.6047 64.9728 19.2411 65.6907 18.036C66.4087 16.8309 67.3831 15.8795 68.6139 15.1819C69.8447 14.463 71.2397 14.1036 72.7987 14.1036C74.3578 14.1036 75.7527 14.4525 76.9835 15.1501C78.2143 15.8478 79.1888 16.8098 79.9067 18.036C80.6247 19.2411 80.9837 20.6047 80.9837 22.1269C80.9837 23.6491 80.6247 25.0233 79.9067 26.2495C79.1888 27.4758 78.2143 28.4483 76.9835 29.1671C75.7527 29.8648 74.3578 30.2136 72.7987 30.2136ZM72.7987 25.8056C73.4757 25.8056 74.0706 25.6576 74.5835 25.3616C75.0963 25.0445 75.486 24.6111 75.7527 24.0614C76.0399 23.4906 76.1835 22.8457 76.1835 22.1269C76.1835 21.4081 76.0399 20.7844 75.7527 20.2559C75.4655 19.7062 75.0655 19.2834 74.5526 18.9874C74.0603 18.6702 73.4757 18.5117 72.7987 18.5117C72.1423 18.5117 71.5577 18.6702 71.0448 18.9874C70.532 19.2834 70.1319 19.7062 69.8447 20.2559C69.5575 20.8056 69.414 21.4398 69.414 22.1586C69.414 22.8563 69.5575 23.4906 69.8447 24.0614C70.1319 24.6111 70.532 25.0445 71.0448 25.3616C71.5577 25.6576 72.1423 25.8056 72.7987 25.8056Z" fill="white"/>
<path fill-rule="evenodd" clip-rule="evenodd" d="M84.7123 35.8902C85.9636 36.4821 87.4098 36.7781 89.051 36.7781C90.651 36.7781 92.0767 36.4504 93.328 35.795C94.5794 35.1396 95.564 34.2306 96.282 33.0678C96.9999 31.905 97.3594 30.5308 97.3594 28.9451V14.4525H92.7433V15.488C92.4 15.1902 92.0102 14.9402 91.5741 14.7379C90.774 14.3362 89.8611 14.1353 88.8355 14.1353C87.4611 14.1353 86.2405 14.4736 85.1738 15.1501C84.107 15.8055 83.266 16.7146 82.6506 17.8774C82.0351 19.0191 81.7275 20.3087 81.7275 21.7464C81.7275 23.1629 82.0351 24.4525 82.6506 25.6153C83.266 26.7781 84.107 27.6978 85.1738 28.3743C86.2405 29.0508 87.4611 29.3891 88.8355 29.3891C89.8407 29.3891 90.7535 29.1883 91.5741 28.7866C91.9715 28.592 92.3306 28.3627 92.651 28.0986V29.072C92.651 30.1502 92.3126 30.9853 91.6356 31.5773C90.9792 32.1693 90.0664 32.4652 88.8971 32.4652C87.9534 32.4652 87.1432 32.2961 86.4662 31.9578C85.8098 31.6196 85.2148 31.1227 84.6814 30.4673L81.7891 33.4483C82.507 34.5054 83.4815 35.3194 84.7123 35.8902ZM91.4202 24.6322C90.9484 24.9282 90.3843 25.0762 89.7278 25.0762C89.0714 25.0762 88.497 24.9282 88.0047 24.6322C87.5328 24.3362 87.1636 23.9345 86.897 23.4271C86.6303 22.8986 86.4969 22.3383 86.4969 21.7464C86.4969 21.1121 86.6303 20.5413 86.897 20.0339C87.1636 19.5265 87.5431 19.1248 88.0354 18.8288C88.5278 18.5328 89.0919 18.3848 89.7278 18.3848C90.3843 18.3848 90.9484 18.5328 91.4202 18.8288C91.9126 19.1248 92.2818 19.5265 92.528 20.0339C92.7947 20.5413 92.928 21.1121 92.928 21.7464C92.928 22.3806 92.7947 22.9514 92.528 23.4588C92.2818 23.9451 91.9126 24.3362 91.4202 24.6322Z" fill="white"/>
<path fill-rule="evenodd" clip-rule="evenodd" d="M107.267 30.2136C105.729 30.2136 104.333 29.8648 103.083 29.1671C101.851 28.4483 100.877 27.4758 100.159 26.2495C99.441 25.0233 99.082 23.6491 99.082 22.1269C99.082 20.6047 99.441 19.2411 100.159 18.036C100.877 16.8309 101.851 15.8795 103.083 15.1819C104.313 14.463 105.708 14.1036 107.267 14.1036C108.826 14.1036 110.221 14.4525 111.451 15.1501C112.683 15.8478 113.657 16.8098 114.375 18.036C115.093 19.2411 115.452 20.6047 115.452 22.1269C115.452 23.6491 115.093 25.0233 114.375 26.2495C113.657 27.4758 112.683 28.4483 111.451 29.1671C110.221 29.8648 108.826 30.2136 107.267 30.2136ZM107.267 25.8056C107.944 25.8056 108.539 25.6576 109.052 25.3616C109.564 25.0445 109.954 24.6111 110.221 24.0614C110.508 23.4906 110.652 22.8457 110.652 22.1269C110.652 21.4081 110.508 20.7844 110.221 20.2559C109.934 19.7062 109.534 19.2834 109.021 18.9874C108.529 18.6702 107.944 18.5117 107.267 18.5117C106.611 18.5117 106.025 18.6702 105.513 18.9874C105 19.2834 104.6 19.7062 104.313 20.2559C104.026 20.8056 103.882 21.4398 103.882 22.1586C103.882 22.8563 104.026 23.4906 104.313 24.0614C104.6 24.6111 105 25.0445 105.513 25.3616C106.025 25.6576 106.611 25.8056 107.267 25.8056Z" fill="white"/>
<path fill-rule="evenodd" clip-rule="evenodd" d="M133.203 30.1819C132.199 30.1819 131.275 29.9811 130.434 29.5794C129.991 29.368 129.592 29.1156 129.235 28.8222V36.3659H124.588V14.4525H129.296V15.5162C129.637 15.2283 130.017 14.9794 130.434 14.7696C131.275 14.3467 132.199 14.1353 133.203 14.1353C134.619 14.1353 135.871 14.4842 136.957 15.1819C138.065 15.8795 138.927 16.8309 139.542 18.036C140.179 19.2411 140.496 20.6153 140.496 22.1586C140.496 23.702 140.179 25.0762 139.542 26.2813C138.927 27.4864 138.065 28.4377 136.957 29.1354C135.871 29.8331 134.619 30.1819 133.203 30.1819ZM132.343 25.8056C133.019 25.8056 133.604 25.647 134.096 25.3299C134.609 25.0128 135.009 24.5793 135.296 24.0297C135.583 23.48 135.727 22.8563 135.727 22.1586C135.727 21.4398 135.583 20.8056 135.296 20.2559C135.009 19.7062 134.609 19.2834 134.096 18.9874C133.604 18.6702 133.029 18.5117 132.373 18.5117C131.717 18.5117 131.132 18.6702 130.619 18.9874C130.126 19.2834 129.737 19.7062 129.45 20.2559C129.163 20.8056 129.019 21.4398 129.019 22.1586C129.019 22.8563 129.152 23.48 129.419 24.0297C129.706 24.5793 130.106 25.0128 130.619 25.3299C131.132 25.647 131.706 25.8056 132.343 25.8056Z" fill="white"/>
<path d="M145.104 29.8965C145.966 30.1291 146.837 30.2453 147.719 30.2453C149.586 30.2453 151.063 29.8014 152.15 28.9134C153.258 28.0255 153.812 26.831 153.812 25.3299C153.812 24.3574 153.638 23.5751 153.289 22.9832C152.94 22.3701 152.489 21.8838 151.935 21.5244C151.381 21.165 150.796 20.8795 150.181 20.6681C149.566 20.4567 148.98 20.277 148.427 20.129C147.873 19.981 147.422 19.8119 147.073 19.6216C146.725 19.4313 146.55 19.1776 146.55 18.8605C146.55 18.5645 146.684 18.3425 146.95 18.1945C147.216 18.0254 147.616 17.9409 148.15 17.9409C148.704 17.9409 149.268 18.0571 149.842 18.2897C150.437 18.5222 150.971 18.924 151.442 19.4948L154.119 16.7041C153.443 15.8161 152.561 15.1501 151.473 14.7062C150.407 14.2411 149.238 14.0085 147.966 14.0085C146.756 14.0085 145.699 14.2199 144.797 14.6427C143.893 15.0656 143.196 15.647 142.704 16.3869C142.212 17.1057 141.965 17.962 141.965 18.9557C141.965 19.8859 142.14 20.6576 142.488 21.2707C142.837 21.8626 143.289 22.3278 143.842 22.666C144.396 23.0043 144.981 23.2686 145.596 23.4588C146.211 23.6491 146.796 23.8288 147.35 23.998C147.903 24.146 148.356 24.3257 148.704 24.5371C149.074 24.7274 149.258 25.0128 149.258 25.3933C149.258 25.6893 149.104 25.9218 148.796 26.091C148.509 26.2601 148.089 26.3447 147.535 26.3447C146.734 26.3447 145.996 26.1967 145.32 25.9007C144.642 25.5836 144.057 25.1502 143.565 24.6005L140.888 27.3912C141.401 27.962 142.017 28.4695 142.735 28.9134C143.473 29.3362 144.263 29.6639 145.104 29.8965Z" fill="white"/>
<path d="M162.397 30.2136C161.023 30.2136 159.802 29.9282 158.736 29.3574C157.689 28.7654 156.869 27.962 156.274 26.9472C155.678 25.9113 155.381 24.7274 155.381 23.3954V14.4525H160.089V23.332C160.089 23.8605 160.171 24.3151 160.336 24.6956C160.52 25.0762 160.787 25.3722 161.135 25.5836C161.485 25.795 161.905 25.9007 162.397 25.9007C163.094 25.9007 163.648 25.6787 164.059 25.2347C164.469 24.7696 164.674 24.1354 164.674 23.332V14.4525H169.382V23.3637C169.382 24.7168 169.085 25.9113 168.489 26.9472C167.894 27.962 167.074 28.7654 166.027 29.3574C164.981 29.9282 163.772 30.2136 162.397 30.2136Z" fill="white"/>
<path d="M176.43 14.4525H171.722V29.8648H176.43V20.8584C176.43 20.3299 176.533 19.8859 176.738 19.5265C176.964 19.1671 177.262 18.8922 177.63 18.702C178 18.4905 178.42 18.3848 178.892 18.3848C179.569 18.3848 180.133 18.6068 180.584 19.0508C181.056 19.4736 181.292 20.0762 181.292 20.8584V29.8648H186V20.8584C186 20.3299 186.103 19.8859 186.308 19.5265C186.534 19.1671 186.831 18.8922 187.2 18.702C187.569 18.4905 187.99 18.3848 188.462 18.3848C189.139 18.3848 189.703 18.6068 190.154 19.0508C190.625 19.4736 190.861 20.0762 190.861 20.8584V29.8648H195.57V20.3193C195.57 19.0297 195.303 17.9303 194.77 17.0212C194.256 16.0909 193.549 15.3827 192.647 14.8965C191.765 14.389 190.749 14.1353 189.6 14.1353C188.431 14.1353 187.374 14.3996 186.431 14.9282C185.818 15.2649 185.282 15.6995 184.823 16.2319C184.395 15.675 183.875 15.2193 183.261 14.8647C182.441 14.3785 181.508 14.1353 180.462 14.1353C179.354 14.1353 178.359 14.3785 177.477 14.8647C177.093 15.067 176.744 15.3093 176.43 15.5916V14.4525Z" fill="white"/>
</g>
<defs>
<clipPath id="clip0_123_2208">
<rect width="196" height="40" fill="white"/>
</clipPath>
</defs>
</svg>
