<svg width="14" height="14" viewBox="0 0 14 14" fill="none" xmlns="http://www.w3.org/2000/svg">
<path d="M7 1L5.73333 4.86667C5.66847 5.06748 5.55688 5.25003 5.40772 5.3993C5.25856 5.54858 5.07609 5.66032 4.87533 5.72533L1 7L4.86667 8.26667C5.06748 8.33153 5.25003 8.44312 5.3993 8.59228C5.54858 8.74144 5.66032 8.92391 5.72533 9.12467L7 13L8.26667 9.13333C8.33153 8.93252 8.44312 8.74997 8.59228 8.6007C8.74144 8.45142 8.92391 8.33968 9.12467 8.27467L13 7L9.13333 5.73333C8.93252 5.66847 8.74997 5.55688 8.6007 5.40772C8.45142 5.25856 8.33968 5.07609 8.27467 4.87533L7 1Z" stroke="#007DFC" stroke-width="2" stroke-linecap="round" stroke-linejoin="round"/>
</svg>
