<svg width="138" height="40" viewBox="0 0 138 40" fill="none" xmlns="http://www.w3.org/2000/svg">
<g style="mix-blend-mode:luminosity" opacity="0.5">
<path d="M26.0345 19.7102C23.615 22.4824 20.099 24.2271 16.1856 24.2271C12.272 24.2271 8.75595 22.4824 6.33643 19.7102C8.75595 16.938 12.272 15.1934 16.1856 15.1934C20.099 15.1934 23.615 16.938 26.0345 19.7102Z" fill="white"/>
<path fill-rule="evenodd" clip-rule="evenodd" d="M2.97168 28.744C2.97168 21.2602 8.88766 15.1934 16.1854 15.1934C12.2719 15.1934 8.75585 16.938 6.33632 19.7102C8.75585 22.4824 12.2719 24.2271 16.1854 24.2271C20.0989 24.2271 23.6149 22.4824 26.0345 19.7102C28.1268 22.1076 29.399 25.2734 29.399 28.744V33.8631C29.399 34.5283 28.8732 35.0675 28.2245 35.0675H4.14623C3.49754 35.0675 2.97168 34.5283 2.97168 33.8631V28.744Z" fill="#7CD4FD"/>
<path fill-rule="evenodd" clip-rule="evenodd" d="M11.2291 23.2418C9.34235 22.4583 7.67219 21.241 6.33632 19.7104C8.75585 16.9382 12.2719 15.1935 16.1854 15.1935C20.0989 15.1935 23.6149 16.9382 26.0345 19.7104C28.1268 17.3131 29.399 14.1472 29.399 10.6767V5.55753C29.399 4.8923 28.8732 4.35303 28.2245 4.35303H4.14623C3.49754 4.35303 2.97168 4.89229 2.97168 5.55753V10.6767C2.97168 16.363 6.38716 21.2313 11.2291 23.2418Z" fill="#0BA5EC"/>
<path d="M50.0385 13.0479V26.6907H47.3701V20.8856H41.6713V26.6907H39.0029V13.0479H41.6713V18.6574H47.3701V13.0479H50.0385Z" fill="white"/>
<path d="M57.3537 26.8666C56.3373 26.8666 55.4224 26.6387 54.6092 26.1826C53.796 25.7135 53.1543 25.0555 52.6841 24.2084C52.2267 23.3615 51.998 22.3842 51.998 21.2766C51.998 20.169 52.2331 19.1917 52.7032 18.3447C53.1861 17.4978 53.8404 16.8463 54.6664 16.3902C55.4923 15.9211 56.4135 15.6865 57.43 15.6865C58.4466 15.6865 59.3678 15.9211 60.1937 16.3902C61.0196 16.8463 61.6677 17.4978 62.1378 18.3447C62.6207 19.1917 62.8621 20.169 62.8621 21.2766C62.8621 22.3842 62.6142 23.3615 62.1187 24.2084C61.6358 25.0555 60.9752 25.7135 60.1365 26.1826C59.3106 26.6387 58.383 26.8666 57.3537 26.8666ZM57.3537 24.4821C57.8366 24.4821 58.2877 24.3648 58.707 24.1303C59.1391 23.8827 59.4821 23.5178 59.7363 23.0357C59.9904 22.5536 60.1175 21.9672 60.1175 21.2766C60.1175 20.2472 59.8506 19.4588 59.317 18.9116C58.796 18.3512 58.1543 18.071 57.3919 18.071C56.6295 18.071 55.9878 18.3512 55.4669 18.9116C54.9586 19.4588 54.7045 20.2472 54.7045 21.2766C54.7045 22.306 54.9523 23.1008 55.4478 23.6612C55.9561 24.2084 56.5914 24.4821 57.3537 24.4821Z" fill="white"/>
<path d="M74.7877 15.8623V26.6906H72.1003V25.3224C71.7571 25.7915 71.3061 26.1629 70.747 26.4365C70.2006 26.6972 69.6034 26.8275 68.9554 26.8275C68.1295 26.8275 67.3989 26.6516 66.7635 26.2997C66.1282 25.9349 65.6263 25.4072 65.2578 24.7165C64.902 24.0129 64.7241 23.179 64.7241 22.2146V15.8623H67.3925V21.8237C67.3925 22.6837 67.6022 23.3483 68.0215 23.8174C68.4408 24.2735 69.0126 24.5015 69.7369 24.5015C70.4738 24.5015 71.052 24.2735 71.4713 23.8174C71.8906 23.3483 72.1003 22.6837 72.1003 21.8237V15.8623H74.7877Z" fill="white"/>
<path d="M80.0889 17.5433C80.4319 16.9701 80.8767 16.5205 81.423 16.1947C81.9821 15.869 82.6174 15.7061 83.329 15.7061V18.5793H82.6238C81.7852 18.5793 81.1498 18.7813 80.7178 19.1852C80.2985 19.5891 80.0889 20.2928 80.0889 21.2961V26.6907H77.4204V15.8625H80.0889V17.5433Z" fill="white"/>
<path d="M89.2621 15.6865C90.0498 15.6865 90.7423 15.8494 91.3395 16.1751C91.9367 16.4878 92.4069 16.8983 92.75 17.4065V15.8624H95.4374V26.769C95.4374 27.7723 95.2404 28.6649 94.8465 29.4467C94.4526 30.2416 93.8618 30.8671 93.074 31.3231C92.2862 31.7922 91.3332 32.0267 90.2151 32.0267C88.7156 32.0267 87.4832 31.6684 86.5175 30.9517C85.5645 30.2351 85.0244 29.2577 84.8973 28.0199H87.5466C87.6865 28.5151 87.9851 28.9059 88.4425 29.1926C88.9126 29.4923 89.478 29.6422 90.1388 29.6422C90.9139 29.6422 91.5428 29.4011 92.0257 28.9189C92.5085 28.4498 92.75 27.7332 92.75 26.769V25.088C92.4069 25.5962 91.9304 26.0197 91.3205 26.3585C90.7233 26.6973 90.0372 26.8666 89.2621 26.8666C88.3726 26.8666 87.5593 26.6321 86.8224 26.163C86.0854 25.6939 85.5009 25.0359 85.0689 24.1889C84.6496 23.3289 84.4399 22.3451 84.4399 21.2375C84.4399 20.143 84.6496 19.1721 85.0689 18.3252C85.5009 17.4782 86.079 16.8266 86.8034 16.3706C87.5403 15.9146 88.3599 15.6865 89.2621 15.6865ZM92.75 21.2766C92.75 20.6121 92.6229 20.0452 92.3688 19.5761C92.1146 19.094 91.7716 18.7292 91.3395 18.4815C90.9076 18.2209 90.4437 18.0907 89.9482 18.0907C89.4527 18.0907 88.9952 18.2144 88.5759 18.462C88.1566 18.7095 87.8135 19.0745 87.5466 19.5566C87.2926 20.0257 87.1654 20.5859 87.1654 21.2375C87.1654 21.8891 87.2926 22.4623 87.5466 22.9575C87.8135 23.4396 88.1566 23.811 88.5759 24.0716C89.0079 24.3322 89.4653 24.4625 89.9482 24.4625C90.4437 24.4625 90.9076 24.3387 91.3395 24.0912C91.7716 23.8306 92.1146 23.4657 92.3688 22.9966C92.6229 22.5145 92.75 21.9411 92.75 21.2766Z" fill="white"/>
<path d="M100.712 12.2268V26.6906H98.0435V12.2268H100.712Z" fill="white"/>
<path d="M102.662 21.2375C102.662 20.143 102.872 19.1721 103.291 18.3252C103.723 17.4782 104.301 16.8266 105.025 16.3706C105.762 15.9146 106.582 15.6865 107.484 15.6865C108.273 15.6865 108.958 15.8494 109.543 16.1751C110.14 16.5009 110.616 16.9114 110.972 17.4065V15.8624H113.659V26.6907H110.972V25.1075C110.629 25.6157 110.153 26.0392 109.543 26.378C108.946 26.7038 108.253 26.8666 107.465 26.8666C106.576 26.8666 105.762 26.6321 105.025 26.163C104.301 25.6939 103.723 25.0359 103.291 24.1889C102.872 23.3289 102.662 22.3451 102.662 21.2375ZM110.972 21.2766C110.972 20.6121 110.846 20.0452 110.591 19.5761C110.337 19.094 109.994 18.7292 109.562 18.4815C109.13 18.2209 108.666 18.0907 108.17 18.0907C107.675 18.0907 107.217 18.2144 106.798 18.462C106.379 18.7095 106.035 19.0745 105.769 19.5566C105.515 20.0257 105.388 20.5859 105.388 21.2375C105.388 21.8891 105.515 22.4623 105.769 22.9575C106.035 23.4396 106.379 23.811 106.798 24.0716C107.23 24.3322 107.688 24.4625 108.17 24.4625C108.666 24.4625 109.13 24.3387 109.562 24.0912C109.994 23.8306 110.337 23.4657 110.591 22.9966C110.846 22.5145 110.972 21.9411 110.972 21.2766Z" fill="white"/>
<path d="M120.306 26.8666C119.442 26.8666 118.668 26.7103 117.982 26.3975C117.295 26.0718 116.749 25.6352 116.342 25.088C115.949 24.5407 115.732 23.9348 115.694 23.2702H118.382C118.432 23.6872 118.629 24.0325 118.972 24.3062C119.328 24.5798 119.766 24.7167 120.288 24.7167C120.795 24.7167 121.189 24.6124 121.469 24.4039C121.761 24.1954 121.908 23.9283 121.908 23.6026C121.908 23.2507 121.73 22.9901 121.374 22.8207C121.031 22.6382 120.478 22.4428 119.716 22.2343C118.928 22.0389 118.28 21.8369 117.772 21.6284C117.276 21.42 116.844 21.1007 116.476 20.6707C116.12 20.2406 115.942 19.6608 115.942 18.9311C115.942 18.3317 116.107 17.7845 116.437 17.2892C116.78 16.7941 117.263 16.4032 117.886 16.1165C118.522 15.8298 119.265 15.6865 120.116 15.6865C121.374 15.6865 122.378 16.0122 123.127 16.6637C123.877 17.3023 124.29 18.1688 124.367 19.2634H121.812C121.774 18.8333 121.596 18.4946 121.278 18.247C120.974 17.9864 120.561 17.8561 120.039 17.8561C119.557 17.8561 119.182 17.9473 118.915 18.1297C118.661 18.3122 118.534 18.5663 118.534 18.892C118.534 19.2569 118.712 19.537 119.068 19.7325C119.423 19.9149 119.976 20.1038 120.726 20.2993C121.488 20.4948 122.117 20.6967 122.613 20.9052C123.108 21.1137 123.534 21.4395 123.89 21.8825C124.258 22.3125 124.449 22.8859 124.461 23.6026C124.461 24.228 124.29 24.7883 123.947 25.2834C123.617 25.7786 123.134 26.1696 122.498 26.4562C121.875 26.7298 121.145 26.8666 120.306 26.8666Z" fill="white"/>
<path d="M130.693 26.8666C129.828 26.8666 129.054 26.7103 128.367 26.3975C127.681 26.0718 127.135 25.6352 126.728 25.088C126.334 24.5407 126.118 23.9348 126.081 23.2702H128.768C128.818 23.6872 129.015 24.0325 129.358 24.3062C129.714 24.5798 130.153 24.7167 130.674 24.7167C131.182 24.7167 131.576 24.6124 131.856 24.4039C132.147 24.1954 132.294 23.9283 132.294 23.6026C132.294 23.2507 132.116 22.9901 131.76 22.8207C131.417 22.6382 130.864 22.4428 130.101 22.2343C129.314 22.0389 128.666 21.8369 128.158 21.6284C127.662 21.42 127.23 21.1007 126.862 20.6707C126.506 20.2406 126.328 19.6608 126.328 18.9311C126.328 18.3317 126.493 17.7845 126.824 17.2892C127.167 16.7941 127.649 16.4032 128.272 16.1165C128.907 15.8298 129.651 15.6865 130.503 15.6865C131.76 15.6865 132.764 16.0122 133.513 16.6637C134.263 17.3023 134.676 18.1688 134.752 19.2634H132.199C132.16 18.8333 131.983 18.4946 131.664 18.247C131.36 17.9864 130.947 17.8561 130.426 17.8561C129.943 17.8561 129.568 17.9473 129.301 18.1297C129.047 18.3122 128.92 18.5663 128.92 18.892C128.92 19.2569 129.098 19.537 129.454 19.7325C129.81 19.9149 130.363 20.1038 131.112 20.2993C131.874 20.4948 132.503 20.6967 132.999 20.9052C133.494 21.1137 133.92 21.4395 134.276 21.8825C134.645 22.3125 134.835 22.8859 134.848 23.6026C134.848 24.228 134.676 24.7883 134.333 25.2834C134.003 25.7786 133.52 26.1696 132.884 26.4562C132.262 26.7298 131.531 26.8666 130.693 26.8666Z" fill="white"/>
</g>
</svg>
