<svg width="138" height="40" viewBox="0 0 138 40" fill="none" xmlns="http://www.w3.org/2000/svg">
<g clip-path="url(#clip0_123_2100)">
<g style="mix-blend-mode:luminosity" opacity="0.5">
<path fill-rule="evenodd" clip-rule="evenodd" d="M25.2549 5.78339C24.9122 5.71088 24.5587 5.71088 24.2159 5.78339C23.8197 5.8672 23.4656 6.07121 23.1841 6.23341L23.1073 6.27751L13.5661 11.7299C13.5397 11.745 13.5125 11.7604 13.4846 11.7762C13.1866 11.945 12.8119 12.1573 12.5241 12.4785C12.2754 12.7562 12.0872 13.0854 11.9719 13.4439C11.8387 13.8586 11.8403 14.2986 11.8416 14.6487C11.8417 14.6813 11.8418 14.7132 11.8418 14.7443V25.5098C11.8418 25.5408 11.8417 25.5727 11.8416 25.6055C11.8403 25.9554 11.8387 26.3954 11.9719 26.8101C12.0872 27.1687 12.2754 27.4978 12.5241 27.7755C12.8119 28.0967 13.1867 28.3091 13.4846 28.4779C13.5125 28.4937 13.5397 28.509 13.5661 28.5241L23.1073 33.9766L23.1841 34.0206C23.4656 34.1828 23.8197 34.3868 24.2159 34.4707C24.5587 34.5431 24.9122 34.5431 25.2549 34.4707C25.6511 34.3868 26.0052 34.1828 26.2867 34.0206L26.3634 33.9766L35.9047 28.5241C35.9163 28.5175 35.9282 28.5107 35.9402 28.5039C35.9553 28.4953 35.9705 28.4867 35.9861 28.4779C36.2841 28.3091 36.6588 28.0967 36.9466 27.7755C37.1954 27.4978 37.3837 27.1687 37.4989 26.8101C37.6321 26.3954 37.6305 25.9554 37.6292 25.6055C37.6291 25.5727 37.629 25.5408 37.629 25.5098V14.7443C37.629 14.7132 37.6291 14.6814 37.6292 14.6487C37.6305 14.2986 37.6321 13.8586 37.4989 13.4439C37.3837 13.0854 37.1954 12.7562 36.9466 12.4785C36.6588 12.1573 36.2841 11.945 35.9861 11.7762L35.985 11.7755C35.9576 11.76 35.9307 11.7448 35.9047 11.7299L26.3634 6.27751L26.2867 6.23341C26.0052 6.07121 25.6511 5.8672 25.2549 5.78339ZM24.3597 8.59624C24.5551 8.48459 24.6548 8.42817 24.7292 8.39125L24.7354 8.38821L24.7416 8.39125C24.816 8.42817 24.9157 8.48459 25.1111 8.59624L33.6847 13.4956L24.7354 18.6098L15.7861 13.4956L24.3597 8.59624ZM14.4205 15.7497L23.446 20.9074V31.1357L14.8184 26.2054C14.6122 26.0876 14.5069 26.0268 14.4329 25.9783L14.4267 25.9742L14.4262 25.9666C14.421 25.8767 14.4205 25.7525 14.4205 25.5098V15.7497Z" fill="white"/>
<path d="M49.3638 24.5593H53.4682V27.0472H46.2305V13.8162H49.3638V24.5593Z" fill="white"/>
<path d="M56.3553 15.4372C55.8056 15.4372 55.3537 15.2739 54.9994 14.9472C54.6574 14.6079 54.4863 14.1933 54.4863 13.7032C54.4863 13.2006 54.6574 12.786 54.9994 12.4594C55.3537 12.12 55.8056 11.9504 56.3553 11.9504C56.8928 11.9504 57.3326 12.12 57.6746 12.4594C58.0289 12.786 58.206 13.2006 58.206 13.7032C58.206 14.1933 58.0289 14.6079 57.6746 14.9472C57.3326 15.2739 56.8928 15.4372 56.3553 15.4372ZM57.9128 16.5305V27.0474H54.7795V16.5305H57.9128Z" fill="white"/>
<path d="M63.8849 16.3794C64.6056 16.3794 65.2348 16.5302 65.7722 16.8317C66.322 17.1333 66.7434 17.5291 67.0366 18.0191V16.5302H70.1698V27.0283C70.1698 27.9958 69.9804 28.8691 69.6018 29.6482C69.2353 30.4397 68.6673 31.068 67.8977 31.5329C67.1403 31.9978 66.1937 32.2303 65.0577 32.2303C63.5429 32.2303 62.3152 31.8596 61.3747 31.1182C60.4341 30.3895 59.8966 29.3969 59.7622 28.1404H62.8588C62.9566 28.5424 63.1887 28.8565 63.5551 29.0827C63.9216 29.3215 64.3735 29.4408 64.911 29.4408C65.5585 29.4408 66.0715 29.2461 66.4502 28.8565C66.8411 28.4796 67.0366 27.8701 67.0366 27.0283V25.5393C66.7311 26.0294 66.3097 26.4315 65.7722 26.7456C65.2348 27.0471 64.6056 27.1979 63.8849 27.1979C63.042 27.1979 62.2786 26.9781 61.5945 26.5382C60.9105 26.0859 60.3669 25.4514 59.9637 24.6346C59.5729 23.8053 59.3774 22.8504 59.3774 21.7698C59.3774 20.6892 59.5729 19.7405 59.9637 18.9238C60.3669 18.1071 60.9105 17.4788 61.5945 17.039C62.2786 16.5993 63.042 16.3794 63.8849 16.3794ZM67.0366 21.7886C67.0366 20.9844 66.8167 20.35 66.3769 19.885C65.9493 19.4202 65.4241 19.1877 64.801 19.1877C64.1781 19.1877 63.6467 19.4202 63.207 19.885C62.7794 20.3374 62.5656 20.9656 62.5656 21.7698C62.5656 22.574 62.7794 23.2148 63.207 23.6923C63.6467 24.1572 64.1781 24.3896 64.801 24.3896C65.4241 24.3896 65.9493 24.1572 66.3769 23.6923C66.8167 23.2273 67.0366 22.5928 67.0366 21.7886Z" fill="white"/>
<path d="M78.5379 16.4173C79.7105 16.4173 80.6512 16.8194 81.3596 17.6235C82.0681 18.4152 82.4224 19.5083 82.4224 20.9031V27.0474H79.3074V21.3365C79.3074 20.6329 79.1303 20.0863 78.7761 19.6968C78.4218 19.3073 77.9454 19.1125 77.3469 19.1125C76.7483 19.1125 76.2719 19.3073 75.9176 19.6968C75.5634 20.0863 75.3862 20.6329 75.3862 21.3365V27.0474H72.2529V13.1001H75.3862V17.9439C75.7039 17.4791 76.1375 17.1084 76.6872 16.832C77.2369 16.5556 77.8538 16.4173 78.5379 16.4173Z" fill="white"/>
<path d="M90.1152 24.3146V27.0475H88.5212C87.3851 27.0475 86.4995 26.7648 85.8643 26.1994C85.2291 25.6214 84.9115 24.6853 84.9115 23.3911V19.2069H83.6655V16.5306H84.9115V13.9673H88.0448V16.5306H90.097V19.2069H88.0448V23.4288C88.0448 23.743 88.118 23.9691 88.2647 24.1073C88.4112 24.2456 88.6555 24.3146 88.9976 24.3146H90.1152Z" fill="white"/>
<path d="M94.8105 18.0193C95.1036 17.5293 95.5251 17.1336 96.0748 16.832C96.6245 16.5304 97.2536 16.3796 97.9621 16.3796C98.8048 16.3796 99.5685 16.5995 100.252 17.0392C100.936 17.4791 101.474 18.1073 101.865 18.924C102.268 19.7408 102.47 20.6894 102.47 21.77C102.47 22.8506 102.268 23.8056 101.865 24.6349C101.474 25.4517 100.936 26.0861 100.252 26.5385C99.5685 26.9783 98.8048 27.1982 97.9621 27.1982C97.2414 27.1982 96.6122 27.0537 96.0748 26.7646C95.5374 26.4631 95.1159 26.0673 94.8105 25.5773V27.0474H91.6772V13.1001H94.8105V18.0193ZM99.2818 21.77C99.2818 20.9659 99.061 20.3376 98.6215 19.8853C98.1942 19.4204 97.6628 19.1879 97.0276 19.1879C96.4046 19.1879 95.8732 19.4204 95.4335 19.8853C95.006 20.3502 94.7922 20.9847 94.7922 21.7889C94.7922 22.593 95.006 23.2276 95.4335 23.6925C95.8732 24.1574 96.4046 24.3899 97.0276 24.3899C97.6506 24.3899 98.1819 24.1574 98.6215 23.6925C99.061 23.2151 99.2818 22.5742 99.2818 21.77Z" fill="white"/>
<path d="M108.584 27.1979C107.583 27.1979 106.679 26.9781 105.873 26.5382C105.079 26.0985 104.45 25.4702 103.986 24.6535C103.533 23.8368 103.308 22.8818 103.308 21.7886C103.308 20.708 103.539 19.7594 104.003 18.9427C104.468 18.1134 105.103 17.4788 105.909 17.039C106.715 16.5993 107.619 16.3794 108.621 16.3794C109.623 16.3794 110.526 16.5993 111.333 17.039C112.139 17.4788 112.774 18.1134 113.239 18.9427C113.703 19.7594 113.934 20.708 113.934 21.7886C113.934 22.8692 113.697 23.8242 113.22 24.6535C112.756 25.4702 112.115 26.0985 111.296 26.5382C110.49 26.9781 109.586 27.1979 108.584 27.1979ZM108.584 24.4085C109.183 24.4085 109.69 24.1823 110.106 23.7299C110.532 23.2776 110.746 22.6305 110.746 21.7886C110.746 20.9468 110.539 20.2997 110.123 19.8474C109.72 19.395 109.22 19.1689 108.621 19.1689C108.01 19.1689 107.503 19.395 107.1 19.8474C106.697 20.2871 106.496 20.9342 106.496 21.7886C106.496 22.6305 106.691 23.2776 107.082 23.7299C107.485 24.1823 107.986 24.4085 108.584 24.4085Z" fill="white"/>
<path d="M121.46 27.0475L119.499 24.1261L117.85 27.0475H114.46L117.833 21.6759L114.369 16.5305H117.887L119.848 19.433L121.497 16.5305H124.887L121.46 21.8267L124.979 27.0475H121.46Z" fill="white"/>
</g>
</g>
<defs>
<clipPath id="clip0_123_2100">
<rect width="138" height="39.42" fill="white" transform="translate(0 0.419922)"/>
</clipPath>
</defs>
</svg>
