<svg width="138" height="40" viewBox="0 0 138 40" fill="none" xmlns="http://www.w3.org/2000/svg">
<g clip-path="url(#clip0_123_2049)">
<g clip-path="url(#clip1_123_2049)">
<g style="mix-blend-mode:luminosity" opacity="0.5">
<path d="M19.7734 16.7206C23.634 14.9104 26.6554 11.8386 28.3899 7.9988C27.2709 6.84687 25.8161 6.02406 24.2495 5.53038L23.4103 5.2561C23.3543 5.36581 23.2983 5.53038 23.2983 5.64009C21.9555 9.37015 19.2139 12.3871 15.5212 14.0876C12.9474 15.2944 11.0451 17.4885 10.1499 20.1215L9.87012 20.9444C9.98197 20.9992 10.1499 21.0541 10.2618 21.0541C11.3248 21.438 12.3879 21.9317 13.3951 22.5351C14.7938 20.0667 17.0318 17.9823 19.7734 16.7206Z" fill="#087443"/>
<path d="M35.9991 16.9402C33.929 20.012 31.0754 22.4804 27.5505 24.1261C24.697 25.4425 22.515 27.911 21.5078 30.8731L21.228 31.8056C22.2912 32.738 23.5781 33.4512 24.9768 33.89L25.816 34.1643C25.872 34.0546 25.928 33.89 25.928 33.7803C27.2708 30.0503 30.0124 27.0333 33.7051 25.3328C36.2789 24.1261 38.2372 21.9318 39.0764 19.2989L39.3562 18.4761C38.1812 18.1469 37.0622 17.5984 35.9991 16.9402Z" fill="#16B364"/>
<path d="M18.9902 28.9527C20.389 25.6615 22.9627 22.9736 26.2638 21.4377C29.2852 20.0115 31.803 17.8174 33.5375 15.1295C32.2506 13.9227 31.1876 12.5513 30.4042 10.9058C28.3341 14.6358 25.0889 17.6528 21.1163 19.5178C18.8224 20.56 16.976 22.3702 15.8569 24.5644C17.0879 25.7163 18.095 27.1425 18.8783 28.7333C18.8783 28.7333 18.9343 28.8429 18.9902 28.9527Z" fill="#099250"/>
<path d="M46.0244 26.2804H55.4533V23.7181H49.0601V12.4834H46.0244V26.2804Z" fill="white"/>
<path d="M65.3038 16.3464H62.4892V21.7864C62.4892 23.0478 61.6248 23.9939 60.3984 23.9939C59.2525 23.9939 58.4483 23.1267 58.4483 21.9244V16.3464H55.6538V22.5354C55.6538 24.802 57.1415 26.438 59.4133 26.438C60.8005 26.438 61.9263 25.8467 62.4892 24.9006V26.2803H65.3038V16.3464Z" fill="white"/>
<path d="M66.3496 26.28H69.1642V20.6429C69.1642 19.3618 69.9081 18.5143 71.0741 18.5143C72.1597 18.5143 72.8433 19.3618 72.8433 20.6429V26.28H75.6579V20.6429C75.6579 19.3618 76.4017 18.5143 77.5678 18.5143C78.6534 18.5143 79.357 19.3618 79.357 20.6429V26.28H82.1515V19.7757C82.1515 17.785 80.7241 16.1885 78.5126 16.1885C76.8842 16.1885 75.6176 17.036 75.1351 18.0018C74.6526 16.8192 73.6273 16.1885 72.0391 16.1885C70.672 16.1885 69.707 16.8389 69.1642 17.7456V16.3462H66.3496V26.28Z" fill="white"/>
<path d="M83.1104 12.03V14.9274H86.0858V12.03H83.1104ZM83.1908 26.2804H86.0054V16.3465H83.1908V26.2804Z" fill="white"/>
<path d="M87.0547 26.28H89.8693V20.84C89.8693 19.5589 90.7338 18.6325 91.9601 18.6325C93.1262 18.6325 93.9102 19.4998 93.9102 20.7021V26.28H96.7248V20.0911C96.7248 17.8047 95.2371 16.1885 92.9452 16.1885C91.558 16.1885 90.4322 16.7601 89.8693 17.7259V16.3462H87.0547V26.28Z" fill="white"/>
<path d="M102.595 26.4377C105.711 26.4377 107.943 24.2696 107.943 21.3131C107.943 18.3566 105.711 16.1885 102.595 16.1885C99.4787 16.1885 97.2476 18.3566 97.2476 21.3131C97.2476 24.2696 99.4787 26.4377 102.595 26.4377ZM102.595 24.0725C101.087 24.0725 100.062 22.949 100.062 21.3131C100.062 19.6574 101.087 18.534 102.595 18.534C104.103 18.534 105.129 19.6574 105.129 21.3131C105.129 22.949 104.103 24.0725 102.595 24.0725Z" fill="white"/>
<path d="M118.136 16.3464H115.322V21.7864C115.322 23.0478 114.457 23.9939 113.232 23.9939C112.085 23.9939 111.281 23.1267 111.281 21.9244V16.3464H108.486V22.5354C108.486 24.802 109.974 26.438 112.246 26.438C113.634 26.438 114.759 25.8467 115.322 24.9006V26.2803H118.136V16.3464Z" fill="white"/>
<path d="M122.881 26.4377C125.254 26.4377 126.821 25.1959 126.821 23.3038C126.821 18.8099 121.273 21.116 121.273 19.0858C121.273 18.4551 121.816 18.1201 122.6 18.1201C123.363 18.1201 124.148 18.5734 124.268 19.4209H126.701C126.601 17.4696 124.952 16.1885 122.52 16.1885C120.448 16.1885 118.901 17.4302 118.901 19.1844C118.901 23.3629 124.349 21.3722 124.349 23.4023C124.349 23.9542 123.746 24.3681 122.881 24.3681C121.836 24.3681 121.132 23.8162 121.032 22.9293H118.619C118.72 25.0777 120.409 26.4377 122.881 26.4377Z" fill="white"/>
</g>
</g>
</g>
<defs>
<clipPath id="clip0_123_2049">
<rect width="138" height="39.42" fill="white"/>
</clipPath>
<clipPath id="clip1_123_2049">
<rect width="138" height="39.42" fill="white"/>
</clipPath>
</defs>
</svg>
