<svg width="48" height="48" viewBox="0 0 48 48" fill="none" xmlns="http://www.w3.org/2000/svg">
<path d="M22 16H10C7.79086 16 6 17.7909 6 20V40C6 42.2091 7.79086 44 10 44H22C24.2091 44 26 42.2091 26 40V20C26 17.7909 24.2091 16 22 16Z" stroke="white" stroke-linecap="round" stroke-linejoin="round"/>
<path d="M10 8C10 6.93913 10.4214 5.92172 11.1716 5.17157C11.9217 4.42143 12.9391 4 14 4H38C39.0609 4 40.0783 4.42143 40.8284 5.17157C41.5786 5.92172 42 6.93913 42 8V40C42 41.0609 41.5786 42.0783 40.8284 42.8284C40.0783 43.5786 39.0609 44 38 44H33.2" stroke="white" stroke-linecap="round" stroke-linejoin="round"/>
<path d="M16 36H16.02" stroke="white" stroke-linecap="round" stroke-linejoin="round"/>
</svg>
