<svg width="20" height="20" viewBox="0 0 20 20" fill="none" xmlns="http://www.w3.org/2000/svg">
<path d="M10 0.4375C8.10872 0.4375 6.25991 0.998331 4.68736 2.04907C3.11482 3.09981 1.88917 4.59327 1.16541 6.34059C0.441643 8.08791 0.252274 10.0106 0.621245 11.8656C0.990216 13.7205 1.90096 15.4244 3.2383 16.7617C4.57564 18.099 6.27951 19.0098 8.13445 19.3788C9.9894 19.7477 11.9121 19.5584 13.6594 18.8346C15.4067 18.1108 16.9002 16.8852 17.9509 15.3126C19.0017 13.7401 19.5625 11.8913 19.5625 10C19.5575 7.46539 18.5485 5.03601 16.7562 3.24376C14.964 1.45152 12.5346 0.442455 10 0.4375ZM10 18.4375C8.33122 18.4375 6.69992 17.9426 5.31238 17.0155C3.92484 16.0884 2.84338 14.7706 2.20477 13.2289C1.56616 11.6871 1.39907 9.99064 1.72463 8.35393C2.05019 6.71721 2.85379 5.21379 4.03379 4.03379C5.2138 2.85378 6.71722 2.05019 8.35393 1.72462C9.99064 1.39906 11.6871 1.56615 13.2289 2.20477C14.7706 2.84338 16.0884 3.92484 17.0155 5.31238C17.9427 6.69992 18.4375 8.33122 18.4375 10C18.435 12.237 17.5453 14.3817 15.9635 15.9635C14.3817 17.5453 12.237 18.435 10 18.4375ZM13.1875 7.375V11.875C13.1875 12.0242 13.1282 12.1673 13.0228 12.2727C12.9173 12.3782 12.7742 12.4375 12.625 12.4375C12.4758 12.4375 12.3327 12.3782 12.2273 12.2727C12.1218 12.1673 12.0625 12.0242 12.0625 11.875V8.73438L7.76875 13.0187C7.66433 13.1232 7.52269 13.1818 7.375 13.1818C7.22732 13.1818 7.08568 13.1232 6.98125 13.0187C6.87683 12.9143 6.81816 12.7727 6.81816 12.625C6.81816 12.4773 6.87683 12.3357 6.98125 12.2313L11.2656 7.9375H8.125C7.97582 7.9375 7.83275 7.87824 7.72726 7.77275C7.62177 7.66726 7.5625 7.52418 7.5625 7.375C7.5625 7.22582 7.62177 7.08274 7.72726 6.97725C7.83275 6.87176 7.97582 6.8125 8.125 6.8125H12.625C12.7742 6.8125 12.9173 6.87176 13.0228 6.97725C13.1282 7.08274 13.1875 7.22582 13.1875 7.375Z" fill="white"/>
</svg>
