<svg width="138" height="40" viewBox="0 0 138 40" fill="none" xmlns="http://www.w3.org/2000/svg">
<g clip-path="url(#clip0_123_2144)">
<g style="mix-blend-mode:luminosity">
<path d="M19.7991 6.45024C21.5569 5.7222 23.4409 5.34741 25.3435 5.34741V12.5914C24.3922 12.5914 23.4502 12.7788 22.5713 13.1429C21.6924 13.5069 20.8939 14.0405 20.2212 14.7131C19.5486 15.3858 19.0149 16.1844 18.651 17.0632C18.2868 17.9421 18.0995 18.8841 18.0995 19.8354H10.8555C10.8555 17.9328 11.2303 16.0489 11.9583 14.291C12.6864 12.5333 13.7535 10.9362 15.0988 9.59083C16.4442 8.24551 18.0413 7.17836 19.7991 6.45024Z" fill="#155EEF"/>
<path d="M10.8555 19.8354C10.8555 21.738 11.2303 23.622 11.9583 25.3798C12.6864 27.1375 13.7535 28.7346 15.0988 30.08C16.4442 31.4253 18.0413 32.4925 19.7991 33.2206C21.5569 33.9486 23.4409 34.3234 25.3435 34.3234C27.246 34.3234 29.1301 33.9486 30.8878 33.2206C32.6456 32.4925 34.2427 31.4253 35.5881 30.08C36.9334 28.7346 38.0006 27.1375 38.7287 25.3798C39.4566 23.622 39.8314 21.738 39.8314 19.8354H32.5875C32.5875 20.7868 32.4002 21.7287 32.036 22.6076C31.672 23.4865 31.1384 24.2851 30.4657 24.9577C29.7931 25.6304 28.9946 26.1639 28.1156 26.528C27.2367 26.8921 26.2948 27.0795 25.3435 27.0795C24.3922 27.0795 23.4502 26.8921 22.5713 26.528C21.6924 26.1639 20.8939 25.6304 20.2212 24.9577C19.5486 24.2851 19.0149 23.4865 18.651 22.6076C18.2868 21.7287 18.0995 20.7868 18.0995 19.8354H10.8555Z" fill="#84ADFF"/>
<path d="M25.3432 15.2256C22.7973 15.2256 20.7334 17.2895 20.7334 19.8355H29.953C29.953 17.2895 27.8891 15.2256 25.3432 15.2256Z" fill="#84ADFF"/>
<path d="M25.3432 24.4452C22.7973 24.4452 20.7334 22.3814 20.7334 19.8354H29.953C29.953 22.3814 27.8891 24.4452 25.3432 24.4452Z" fill="#155EEF"/>
<path d="M54.8574 16.8077C54.805 16.2795 54.5802 15.8691 54.1829 15.5766C53.7857 15.2842 53.2466 15.138 52.5656 15.138C52.1028 15.138 51.7122 15.2034 51.3935 15.3344C51.0748 15.461 50.8303 15.6378 50.6601 15.8648C50.4942 16.0918 50.4113 16.3494 50.4113 16.6374C50.4025 16.8776 50.4527 17.0871 50.5619 17.2661C50.6754 17.4451 50.8303 17.6001 51.0268 17.731C51.2233 17.8576 51.4502 17.9689 51.7077 18.0649C51.9653 18.1566 52.2404 18.2352 52.5328 18.3007L53.7377 18.5888C54.3227 18.7197 54.8596 18.8943 55.3485 19.1126C55.8374 19.3309 56.2608 19.5994 56.6188 19.9181C56.9768 20.2367 57.2539 20.6122 57.4504 21.0443C57.6512 21.4764 57.7538 21.972 57.7582 22.5307C57.7538 23.3514 57.5443 24.063 57.1296 24.6653C56.7192 25.2634 56.1255 25.7283 55.3485 26.0601C54.5758 26.3875 53.6439 26.5512 52.5525 26.5512C51.4698 26.5512 50.5269 26.3853 49.7237 26.0536C48.9249 25.7218 48.3007 25.2307 47.851 24.5803C47.4057 23.9254 47.1722 23.1156 47.1504 22.1509H49.894C49.9246 22.6005 50.0533 22.976 50.2803 23.2771C50.5116 23.574 50.8194 23.7989 51.2036 23.9516C51.5921 24.1 52.0308 24.1742 52.5198 24.1742C52.9999 24.1742 53.4168 24.1044 53.7704 23.9647C54.1284 23.825 54.4055 23.6307 54.6021 23.3819C54.7985 23.1332 54.8967 22.8472 54.8967 22.5241C54.8967 22.223 54.8072 21.9698 54.6282 21.7646C54.4536 21.5594 54.196 21.3848 53.8555 21.2407C53.5194 21.0967 53.1069 20.9658 52.6179 20.8479L51.1577 20.4812C50.0272 20.2061 49.1344 19.7762 48.4796 19.1912C47.8248 18.6063 47.4996 17.8183 47.504 16.8273C47.4996 16.0154 47.7157 15.306 48.1522 14.6993C48.5931 14.0925 49.1977 13.6189 49.966 13.2784C50.7344 12.9379 51.6074 12.7676 52.5852 12.7676C53.5805 12.7676 54.4492 12.9379 55.1914 13.2784C55.9378 13.6189 56.5185 14.0925 56.9332 14.6993C57.3479 15.306 57.5617 16.0089 57.5748 16.8077H54.8574Z" fill="white" fill-opacity="0.6"/>
<path d="M64.1967 26.5578C63.162 26.5578 62.2715 26.3482 61.525 25.9292C60.7829 25.5057 60.2111 24.9077 59.8095 24.135C59.4079 23.358 59.207 22.4391 59.207 21.3783C59.207 20.3436 59.4079 19.4357 59.8095 18.6543C60.2111 17.8729 60.7764 17.264 61.5054 16.8274C62.2388 16.3909 63.0988 16.1726 64.0854 16.1726C64.7489 16.1726 65.3666 16.2795 65.9385 16.4935C66.5147 16.703 67.0167 17.0194 67.4445 17.4429C67.8767 17.8664 68.2128 18.399 68.4529 19.0406C68.693 19.6779 68.813 20.4244 68.813 21.2801V22.0462H60.3203V20.3175H66.1872C66.1872 19.9158 66.1 19.5601 65.9254 19.2501C65.7507 18.9402 65.5084 18.698 65.1985 18.5233C64.893 18.3444 64.5372 18.2549 64.1312 18.2549C63.7077 18.2549 63.3323 18.3531 63.0049 18.5495C62.6819 18.7416 62.4287 19.0014 62.2453 19.3288C62.062 19.6518 61.9681 20.0119 61.9638 20.4092V22.0527C61.9638 22.5504 62.0554 22.9803 62.2388 23.3427C62.4266 23.705 62.6906 23.9844 63.0312 24.1809C63.3717 24.3773 63.7754 24.4755 64.2425 24.4755C64.5525 24.4755 64.8362 24.4319 65.0937 24.3446C65.3513 24.2573 65.5718 24.1263 65.7551 23.9517C65.9385 23.777 66.0781 23.5632 66.1742 23.31L68.7541 23.4802C68.6232 24.1001 68.3546 24.6414 67.9487 25.1041C67.5471 25.5625 67.0276 25.9204 66.3902 26.178C65.7573 26.4312 65.0261 26.5578 64.1967 26.5578Z" fill="white" fill-opacity="0.6"/>
<path d="M75.1647 30.3425C74.2611 30.3425 73.4862 30.2182 72.8401 29.9693C72.1984 29.7248 71.6876 29.3909 71.3079 28.9675C70.9281 28.544 70.6815 28.0682 70.5679 27.54L73.1479 27.193C73.2265 27.3937 73.3509 27.5814 73.5212 27.7561C73.6914 27.9307 73.9162 28.0704 74.1955 28.1751C74.4794 28.2843 74.8242 28.3388 75.2301 28.3388C75.837 28.3388 76.3367 28.1904 76.7297 27.8936C77.1269 27.6011 77.3255 27.11 77.3255 26.4202V24.5803H77.2076C77.0854 24.8597 76.9021 25.1237 76.6576 25.3725C76.4132 25.6214 76.0988 25.8244 75.7147 25.9816C75.3306 26.1387 74.8722 26.2173 74.3396 26.2173C73.5844 26.2173 72.8969 26.0427 72.277 25.6934C71.6615 25.3398 71.1704 24.8008 70.8037 24.076C70.4414 23.347 70.2603 22.426 70.2603 21.3128C70.2603 20.1734 70.4457 19.2217 70.8168 18.4579C71.1878 17.6939 71.6811 17.122 72.2967 16.7422C72.9166 16.3625 73.5954 16.1726 74.3331 16.1726C74.8962 16.1726 75.3677 16.2686 75.7474 16.4607C76.1272 16.6484 76.4328 16.8841 76.6642 17.1679C76.9 17.4473 77.0811 17.7223 77.2076 17.9929H77.3125V16.3036H80.0822V26.4596C80.0822 27.3152 79.8727 28.0311 79.4537 28.6074C79.0346 29.1836 78.454 29.6157 77.7119 29.9038C76.9742 30.1963 76.1251 30.3425 75.1647 30.3425ZM75.2236 24.1219C75.6732 24.1219 76.053 24.0106 76.363 23.788C76.6772 23.561 76.9174 23.238 77.0833 22.8188C77.2536 22.3954 77.3386 21.889 77.3386 21.2997C77.3386 20.7103 77.2557 20.1997 77.0898 19.7674C76.9239 19.3309 76.6838 18.9926 76.3696 18.7525C76.0552 18.5124 75.6732 18.3923 75.2236 18.3923C74.7653 18.3923 74.379 18.5168 74.0646 18.7657C73.7503 19.0101 73.5124 19.3505 73.3509 19.7871C73.1894 20.2236 73.1086 20.7279 73.1086 21.2997C73.1086 21.8803 73.1894 22.3823 73.3509 22.8057C73.5167 23.2248 73.7546 23.5501 74.0646 23.7815C74.379 24.0084 74.7653 24.1219 75.2236 24.1219Z" fill="white" fill-opacity="0.6"/>
<path d="M82.3018 26.3613V16.3036H84.9602V18.0781H85.0781C85.2876 17.4887 85.6369 17.0238 86.1258 16.6833C86.6147 16.3428 87.1997 16.1726 87.8807 16.1726C88.5704 16.1726 89.1575 16.345 89.6421 16.6899C90.1266 17.0304 90.4497 17.4931 90.6112 18.0781H90.716C90.9211 17.5019 91.2922 17.0413 91.8292 16.6964C92.3704 16.3472 93.01 16.1726 93.7478 16.1726C94.6862 16.1726 95.448 16.4716 96.0329 17.0697C96.6223 17.6634 96.9169 18.5059 96.9169 19.5972V26.3613H94.1341V20.1472C94.1341 19.5884 93.9857 19.1694 93.6888 18.89C93.3919 18.6106 93.0208 18.471 92.5756 18.471C92.0692 18.471 91.6742 18.6325 91.3904 18.9555C91.1067 19.2742 90.9648 19.6955 90.9648 20.2193V26.3613H88.2605V20.0883C88.2605 19.5951 88.1186 19.2021 87.8348 18.9096C87.5555 18.6171 87.1866 18.471 86.7282 18.471C86.4183 18.471 86.1389 18.5495 85.8901 18.7067C85.6456 18.8595 85.4513 19.0756 85.3072 19.3549C85.1633 19.6299 85.0912 19.953 85.0912 20.324V26.3613H82.3018Z" fill="white" fill-opacity="0.6"/>
<path d="M103.704 26.5578C102.67 26.5578 101.779 26.3482 101.033 25.9292C100.291 25.5057 99.7191 24.9077 99.317 24.135C98.9149 23.358 98.7148 22.4391 98.7148 21.3783C98.7148 20.3436 98.9149 19.4357 99.317 18.6543C99.7191 17.8729 100.284 17.264 101.013 16.8274C101.746 16.3909 102.607 16.1726 103.593 16.1726C104.256 16.1726 104.874 16.2795 105.446 16.4935C106.022 16.703 106.524 17.0194 106.952 17.4429C107.384 17.8664 107.72 18.399 107.961 19.0406C108.2 19.6779 108.321 20.4244 108.321 21.2801V22.0462H99.8275V20.3175H105.695C105.695 19.9158 105.607 19.5601 105.433 19.2501C105.259 18.9402 105.016 18.698 104.706 18.5233C104.4 18.3444 104.044 18.2549 103.638 18.2549C103.216 18.2549 102.84 18.3531 102.512 18.5495C102.19 18.7416 101.936 19.0014 101.753 19.3288C101.57 19.6518 101.475 20.0119 101.471 20.4092V22.0527C101.471 22.5504 101.563 22.9803 101.746 23.3427C101.934 23.705 102.199 23.9844 102.539 24.1809C102.88 24.3773 103.283 24.4755 103.75 24.4755C104.06 24.4755 104.344 24.4319 104.601 24.3446C104.858 24.2573 105.079 24.1263 105.263 23.9517C105.446 23.777 105.586 23.5632 105.681 23.31L108.261 23.4802C108.13 24.1001 107.862 24.6414 107.456 25.1041C107.054 25.5625 106.535 25.9204 105.898 26.178C105.264 26.4312 104.533 26.5578 103.704 26.5578Z" fill="white" fill-opacity="0.6"/>
<path d="M112.931 20.5467V26.3613H110.141V16.3036H112.8V18.0781H112.917C113.14 17.4931 113.513 17.0304 114.037 16.6899C114.561 16.345 115.196 16.1726 115.942 16.1726C116.641 16.1726 117.25 16.3254 117.769 16.631C118.289 16.9366 118.693 17.373 118.981 17.9406C119.268 18.5037 119.413 19.1759 119.413 19.9573V26.3613H116.623V20.455C116.628 19.8395 116.47 19.3593 116.152 19.0144C115.833 18.6652 115.394 18.4906 114.836 18.4906C114.46 18.4906 114.129 18.5713 113.84 18.7328C113.556 18.8944 113.334 19.1301 113.173 19.44C113.015 19.7456 112.935 20.1145 112.931 20.5467Z" fill="white" fill-opacity="0.6"/>
<path d="M126.961 16.3035V18.3989H120.904V16.3035H126.961ZM122.279 13.8938H125.069V23.2706C125.069 23.5281 125.108 23.729 125.186 23.8731C125.265 24.0127 125.375 24.111 125.514 24.1677C125.658 24.2245 125.824 24.2528 126.012 24.2528C126.142 24.2528 126.273 24.2419 126.404 24.2201C126.535 24.1938 126.636 24.1742 126.706 24.1611L127.144 26.2369C127.005 26.2805 126.808 26.3307 126.555 26.3875C126.302 26.4486 125.994 26.4857 125.632 26.4988C124.96 26.525 124.37 26.4355 123.864 26.2304C123.362 26.0252 122.971 25.7065 122.692 25.2744C122.412 24.8421 122.275 24.2964 122.279 23.6373V13.8938Z" fill="white" fill-opacity="0.6"/>
</g>
</g>
<defs>
<clipPath id="clip0_123_2144">
<rect width="138" height="39.42" fill="white" transform="translate(0 0.419922)"/>
</clipPath>
</defs>
</svg>
