<svg width="138" height="40" viewBox="0 0 138 40" fill="none" xmlns="http://www.w3.org/2000/svg">
<g clip-path="url(#clip0_123_2113)">
<g style="mix-blend-mode:luminosity" opacity="0.5">
<path d="M40.2011 20.3044C40.2011 27.9647 33.9678 34.1836 26.2676 34.1836C18.5673 34.1836 12.334 27.9647 12.334 20.3044C12.334 12.6441 18.5673 6.42529 26.2676 6.42529C33.9678 6.42529 40.2011 12.6441 40.2011 20.3044Z" stroke="#6927DA" stroke-width="2.9565"/>
<path d="M31.6599 25.6778C28.8049 28.5226 25.5852 30.3638 22.7462 31.0912C19.8699 31.8283 17.6747 31.3738 16.4167 30.1202C15.1587 28.8667 14.7026 26.6792 15.4422 23.8131C16.1722 20.9841 18.0199 17.7757 20.8749 14.9309C23.7298 12.086 26.9496 10.2448 29.7886 9.51733C32.6649 8.78033 34.8601 9.23488 36.1181 10.4885C37.3759 11.742 37.8321 13.9294 37.0925 16.7956C36.3625 19.6245 34.5148 22.8328 31.6599 25.6778Z" stroke="#6927DA" stroke-width="2.9565"/>
<path d="M31.6598 14.9309C34.5147 17.7757 36.3625 20.984 37.0925 23.8131C37.8321 26.6791 37.376 28.8666 36.118 30.1202C34.86 31.3737 32.6648 31.8283 29.7886 31.0912C26.9495 30.3638 23.7298 28.5226 20.8748 25.6777C18.0199 22.8328 16.1722 19.6245 15.4422 16.7956C14.7026 13.9294 15.1587 11.7419 16.4166 10.4885C17.6746 9.23489 19.8698 8.78033 22.7461 9.51733C25.5851 10.2448 28.8049 12.0859 31.6598 14.9309Z" stroke="#6927DA" stroke-width="2.9565"/>
<path d="M54.8844 27.2783C58.1839 27.2783 60.4116 25.5611 60.4116 22.8177C60.4116 17.0168 52.6776 19.4879 52.6776 16.4304C52.6776 15.5718 53.4553 14.9854 54.6952 14.9854C56.1033 14.9854 56.9859 15.7393 57.0911 16.8911H60.0964C60.0123 14.1058 57.8687 12.2839 54.6952 12.2839C51.711 12.2839 49.6093 14.0012 49.6093 16.4304C49.6093 22.1894 57.2381 19.9905 57.2381 22.8595C57.2381 23.9695 56.2924 24.5559 54.8844 24.5559C53.3291 24.5559 52.3414 23.6134 52.2153 22.1266H49.189C49.3151 25.2469 51.5428 27.2783 54.8844 27.2783Z" fill="white"/>
<path d="M61.1265 31.3831H64.0477V26.1685C64.6151 26.8805 65.6449 27.2784 66.8429 27.2784C69.8901 27.2784 71.9497 25.1214 71.9497 21.8336C71.9497 18.5456 70.0583 16.3887 67.0951 16.3887C65.729 16.3887 64.6782 16.8913 64.0477 17.708V16.5562H61.1265V31.3831ZM66.4855 24.7654C64.9093 24.7654 63.8796 23.5927 63.8796 21.8336C63.8796 20.0535 64.9093 18.8807 66.4855 18.8807C68.0197 18.8807 69.0705 20.0535 69.0705 21.8336C69.0705 23.5927 68.0197 24.7654 66.4855 24.7654Z" fill="white"/>
<path d="M72.6562 27.1108H75.5776V21.3308C75.5776 19.9695 76.4812 18.9853 77.7632 18.9853C78.9822 18.9853 79.8228 19.9067 79.8228 21.1842V27.1108H82.744V20.535C82.744 18.1057 81.1888 16.3885 78.814 16.3885C77.3429 16.3885 76.187 16.9958 75.5776 18.022V11.9697H72.6562V27.1108Z" fill="white"/>
<path d="M90.916 23.5298C90.6848 24.4304 89.9072 24.8911 88.7303 24.8911C87.2592 24.8911 86.3135 23.9696 86.1033 22.4827H93.7111C93.7321 22.2524 93.7531 21.9382 93.7531 21.5404C93.7531 19.132 92.261 16.3887 88.5201 16.3887C84.9264 16.3887 83.2871 19.132 83.2871 21.8126C83.2871 24.4722 85.1365 27.2784 88.7303 27.2784C91.3363 27.2784 93.3538 25.8125 93.7741 23.5298H90.916ZM88.5201 18.5247C89.9282 18.5247 90.7478 19.4671 90.8319 20.6398H86.1453C86.3975 19.1739 87.1961 18.5247 88.5201 18.5247Z" fill="white"/>
<path d="M101.415 18.9854V16.5562H99.9077C98.6256 16.5562 97.8271 16.9959 97.2597 18.3153V16.5562H94.3174V27.1109H97.2597V21.98C97.2597 20.179 97.9112 18.9854 99.3608 18.9854H101.415Z" fill="white"/>
<path d="M111.503 16.5559H108.56V22.3359C108.56 23.6761 107.657 24.6814 106.375 24.6814C105.177 24.6814 104.337 23.7599 104.337 22.4824V16.5559H101.415V23.1317C101.415 25.5399 102.97 27.2781 105.345 27.2781C106.795 27.2781 107.972 26.6499 108.56 25.6447V27.1106H111.503V16.5559Z" fill="white"/>
<path d="M112.763 27.1108H115.684V11.9697H112.763V27.1108Z" fill="white"/>
<path d="M124.025 23.5298C123.793 24.4304 123.016 24.8911 121.839 24.8911C120.368 24.8911 119.422 23.9696 119.213 22.4827H126.82C126.841 22.2524 126.862 21.9382 126.862 21.5404C126.862 19.132 125.37 16.3887 121.629 16.3887C118.035 16.3887 116.396 19.132 116.396 21.8126C116.396 24.4722 118.246 27.2784 121.839 27.2784C124.446 27.2784 126.463 25.8125 126.883 23.5298H124.025ZM121.629 18.5247C123.037 18.5247 123.856 19.4671 123.941 20.6398H119.254C119.506 19.1739 120.304 18.5247 121.629 18.5247Z" fill="white"/>
</g>
</g>
<defs>
<clipPath id="clip0_123_2113">
<rect width="138" height="39.42" fill="white" transform="translate(0 0.419922)"/>
</clipPath>
</defs>
</svg>
