<svg width="48" height="48" viewBox="0 0 48 48" fill="none" xmlns="http://www.w3.org/2000/svg">
<path d="M42 16.0001C41.9993 15.2986 41.8141 14.6097 41.4631 14.0024C41.112 13.3951 40.6075 12.8908 40 12.54L26 4.54005C25.3919 4.18898 24.7021 4.00415 24 4.00415C23.2979 4.00415 22.6081 4.18898 22 4.54005L8 12.54C7.39253 12.8908 6.88796 13.3951 6.53692 14.0024C6.18589 14.6097 6.00072 15.2986 6 16.0001V32.0001C6.00072 32.7015 6.18589 33.3904 6.53692 33.9977C6.88796 34.605 7.39253 35.1093 8 35.4601L22 43.4601C22.6081 43.8111 23.2979 43.996 24 43.996C24.7021 43.996 25.3919 43.8111 26 43.4601L40 35.4601C40.6075 35.1093 41.112 34.605 41.4631 33.9977C41.8141 33.3904 41.9993 32.7015 42 32.0001V16.0001Z" stroke="white" stroke-linecap="round" stroke-linejoin="round"/>
<path d="M6.6001 14L24.0001 24L41.4001 14" stroke="white" stroke-linecap="round" stroke-linejoin="round"/>
<path d="M24 44V24" stroke="white" stroke-linecap="round" stroke-linejoin="round"/>
</svg>
