<svg width="138" height="40" viewBox="0 0 138 40" fill="none" xmlns="http://www.w3.org/2000/svg">
<g clip-path="url(#clip0_123_2095)">
<g opacity="0.5">
<path d="M49.8055 16.7159C49.8055 14.7347 47.9196 12.6568 44.6418 12.6568C40.966 12.6568 36.9302 15.3847 36.3123 20.8295C35.6808 26.3275 39.0606 28.7707 42.4673 28.7707C45.8741 28.7707 47.658 27.4271 49.4823 25.6353C47.9135 23.6416 45.8876 24.563 45.4993 24.766C44.8567 25.127 44.129 25.3055 43.3936 25.2824C42.0791 25.2824 40.7375 24.6855 40.7375 22.2015C49.1605 21.3595 49.8042 18.6848 49.8042 16.7159H49.8055ZM45.6308 17.0415C45.5768 17.6521 45.3359 18.6972 41.0704 19.2829C41.9673 16.0509 43.6873 15.8082 44.4773 15.8082C44.6373 15.8009 44.7972 15.8283 44.9458 15.8887C45.0944 15.9491 45.2284 16.0411 45.3387 16.1583C45.4489 16.2755 45.5328 16.4154 45.5848 16.5682C45.6366 16.721 45.6553 16.8833 45.6395 17.044L45.6308 17.0415ZM31.3649 17.5716L29.4066 23.8027L28.0244 12.9838C24.9408 12.9838 23.2822 15.2102 22.4173 17.558L20.029 23.8163L19.6936 17.6248C19.5118 14.747 16.9049 12.9961 14.7979 12.9961L17.3459 28.6481C20.5769 28.6357 22.3216 26.4216 23.2343 24.0738L25.2541 18.7529C25.2725 18.9696 26.6497 28.6493 26.6497 28.6493C29.8955 28.6493 31.64 26.5727 32.575 24.3054L37.1206 12.9974C33.9203 12.9974 32.2335 15.2102 31.3624 17.5716H31.3649ZM61.7175 12.6184C59.7186 12.6184 58.1916 13.718 56.9016 15.3327V15.3204L58.0539 5.91309C55.3978 5.91309 53.2381 8.24849 52.8228 11.7231L50.8252 28.5267C52.3547 28.5267 53.9776 28.0785 54.8499 26.9379C55.6288 27.9559 56.7946 28.7707 58.5257 28.7707C63.0051 28.7707 66.0777 23.5042 66.0777 18.5622C66.0506 14.0548 63.8908 12.6308 61.731 12.6308L61.7175 12.6184ZM61.2998 20.6958C60.8329 23.4509 59.3145 25.3245 57.8537 25.3245C56.3929 25.3245 55.7479 24.6596 55.7479 24.6596C56.0305 22.2449 56.205 20.7639 56.7406 19.4872C57.2762 18.2105 58.5515 16.1748 59.8795 16.1748C61.1819 16.1748 61.7715 17.9257 61.301 20.6945L61.2998 20.6958ZM77.2489 12.9849H74.1234L74.1357 12.8215C74.3507 10.7585 74.8335 9.67252 76.4257 9.49545C77.513 9.38648 77.9958 8.81687 78.1162 8.19277L78.5057 6.00719C72.2401 5.96633 70.2572 8.70666 69.7522 12.8896L69.74 12.9849H69.6724C68.6527 12.9849 67.5273 14.1527 67.3381 15.6324L67.2705 16.1748H69.364L67.6072 30.8608L67.0691 33.4947C67.1367 33.4947 67.2165 33.5071 67.2828 33.5071C70.2191 33.3981 72.0988 31.0503 72.514 27.6426L73.8851 16.1723H74.8679C75.8335 16.1723 76.9614 15.194 77.1579 13.5657L77.2489 12.9849ZM93.505 12.7125C89.8968 12.7125 86.49 15.3996 85.4458 19.6222C84.4015 23.8448 85.9839 28.8388 91.2936 28.8388C96.6034 28.8388 99.6445 23.6379 99.6445 19.3089C99.6494 15.0058 96.7668 12.7113 93.5063 12.7113L93.505 12.7125ZM94.967 20.5583C94.7802 22.4727 93.9473 25.3777 91.6671 25.3777C89.387 25.3777 89.6954 21.9848 89.9164 20.3689C90.1584 18.6452 91.1106 16.1884 93.1622 16.1884C95.0076 16.1884 95.1807 18.4012 94.9683 20.5596L94.967 20.5583ZM117.474 17.558L115.516 23.789C115.463 23.2999 114.135 12.9701 114.135 12.9701C111.052 12.9701 109.4 15.1965 108.536 17.5444L106.147 23.8027C106.135 23.3544 105.812 17.6112 105.812 17.6112C105.618 14.7334 103.013 12.9825 100.897 12.9825L103.432 28.6344C106.663 28.6221 108.408 26.4079 109.32 24.0602L111.333 18.7393C111.345 18.956 112.728 28.6357 112.728 28.6357C115.974 28.6357 117.712 26.559 118.654 24.2918L123.203 12.9838C120.011 12.9838 118.321 15.1965 117.462 17.558H117.474ZM80.1999 6.00472L77.5708 27.4642L77.0327 30.1117C77.099 30.1117 77.1801 30.1241 77.2464 30.1241C80.0745 30.0833 82.0869 27.5732 82.4641 24.4093L83.9789 12.0971C84.4383 8.33641 82.2258 6.00224 80.1999 6.00224V6.00472Z" fill="white"/>
</g>
</g>
<defs>
<clipPath id="clip0_123_2095">
<rect width="138" height="39.42" fill="white"/>
</clipPath>
</defs>
</svg>
