<svg width="31" height="36" viewBox="0 0 31 36" fill="none" xmlns="http://www.w3.org/2000/svg">
<path d="M28.3332 18V7.58168C28.3333 7.45012 28.3074 7.31983 28.2571 7.19828C28.2067 7.07673 28.1329 6.96631 28.0398 6.87334L22.7932 1.62668C22.6058 1.43909 22.3516 1.33358 22.0865 1.33334H2.6665C2.40129 1.33334 2.14693 1.4387 1.9594 1.62624C1.77186 1.81377 1.6665 2.06813 1.6665 2.33334V33.6667C1.6665 33.9319 1.77186 34.1862 1.9594 34.3738C2.14693 34.5613 2.40129 34.6667 2.6665 34.6667H13.3332M8.33317 14.6667H21.6665M8.33317 8.00001H14.9998M8.33317 21.3333H13.3332M24.9232 26.2333L26.5898 24.5667C26.7634 24.393 26.9694 24.2553 27.1962 24.1613C27.4229 24.0673 27.666 24.0189 27.9115 24.0189C28.157 24.0189 28.4001 24.0673 28.6268 24.1613C28.8536 24.2553 29.0597 24.393 29.2332 24.5667C29.5834 24.917 29.7801 25.3921 29.7801 25.8875C29.7801 26.3829 29.5834 26.858 29.2332 27.2083L27.5665 28.875L24.9232 26.2317L19.9382 31.2167C19.6889 31.4667 19.5255 31.7894 19.4715 32.1383L19.0648 34.7333L21.6598 34.3283C22.0087 34.2743 22.3315 34.1109 22.5815 33.8617L27.5648 28.875" stroke="white" stroke-width="1.5" stroke-linecap="round" stroke-linejoin="round"/>
<path d="M21.6665 1.33334V7.00001C21.6665 7.26523 21.7719 7.51958 21.9594 7.70712C22.1469 7.89465 22.4013 8.00001 22.6665 8.00001H28.3332" stroke="white" stroke-width="1.5" stroke-linecap="round" stroke-linejoin="round"/>
</svg>
