<svg width="32" height="36" viewBox="0 0 32 36" fill="none" xmlns="http://www.w3.org/2000/svg">
<path d="M11.6667 34.6667H2C1.44772 34.6667 1 34.219 1 33.6667V27.3334C1 26.7811 1.44772 26.3334 2 26.3334H11.6667C12.219 26.3334 12.6667 26.7811 12.6667 27.3334V33.6667C12.6667 34.219 12.219 34.6667 11.6667 34.6667Z" stroke="white" stroke-width="1.5"/>
<path d="M20.8332 9.66669H11.1665C10.6142 9.66669 10.1665 9.21897 10.1665 8.66669V2.33335C10.1665 1.78107 10.6142 1.33335 11.1665 1.33335H20.8332C21.3855 1.33335 21.8332 1.78107 21.8332 2.33335V8.66669C21.8332 9.21897 21.3855 9.66669 20.8332 9.66669Z" stroke="white" stroke-width="1.5"/>
<path d="M30.0002 34.6667H20.3335C19.7812 34.6667 19.3335 34.219 19.3335 33.6667V27.3334C19.3335 26.7811 19.7812 26.3334 20.3335 26.3334H30.0002C30.5524 26.3334 31.0002 26.7811 31.0002 27.3334V33.6667C31.0002 34.219 30.5524 34.6667 30.0002 34.6667Z" stroke="white" stroke-width="1.5"/>
<path d="M6.8335 26.3334V20.5C6.8335 19.616 7.18469 18.7681 7.80981 18.143C8.43493 17.5179 9.28277 17.1667 10.1668 17.1667H21.8335C22.7176 17.1667 23.5654 17.5179 24.1905 18.143C24.8156 18.7681 25.1668 19.616 25.1668 20.5V26.3334M16.0002 17.1667V9.66669" stroke="white" stroke-width="1.5"/>
</svg>
